PathFileType	4	(X/Y/Z)	C:\Users\dbl\Desktop\20210112(1)\20210112\bx_y_10_1801.trc
DataRate	CameraRate	NumFrames	NumMarkers	Units	OrigDataRate	OrigDataStartFrame	OrigNumFrames
50.00	50.00	       4	43	mm	50.00	293	       468
Frame#	Time	Top.Head			R.Acromium			L.Acromium			Sternum			R.ASIS			L.ASIS			V.Sacral			R.Thigh.Upper			R.Thigh.Front			R.Thigh.Rear			R.Knee.Lat			R.Knee.Med			R.Shank.Upper			R.Shank.Front			R.Shank.Rear			R.Ankle.Lat			R.Midfoot.Lat			R.Toe.Lat			R.Toe.Tip			R.Toe.Med			R.Ankle.Med			R.Midfoot.Sup			R.Heel			L.Thigh.Upper			L.Thigh.Front			L.Thigh.Rear			L.Knee.Lat			L.Knee.Med			L.Shank.Upper			L.Shank.Front			L.Shank.Rear			L.Ankle.Lat			L.Midfoot.Lat			L.Toe.Lat			L.Toe.Tip			L.Toe.Med			L.Ankle.Med			L.Midfoot.Sup			L.Heel			origin1 front left			origin2 front right			origin 3 back right			origin 4 back leftt			
		X1	Y1	Z1	X2	Y2	Z2	X3	Y3	Z3	X4	Y4	Z4	X5	Y5	Z5	X6	Y6	Z6	X7	Y7	Z7	X8	Y8	Z8	X9	Y9	Z9	X10	Y10	Z10	X11	Y11	Z11	X12	Y12	Z12	X13	Y13	Z13	X14	Y14	Z14	X15	Y15	Z15	X16	Y16	Z16	X17	Y17	Z17	X18	Y18	Z18	X19	Y19	Z19	X20	Y20	Z20	X21	Y21	Z21	X22	Y22	Z22	X23	Y23	Z23	X24	Y24	Z24	X25	Y25	Z25	X26	Y26	Z26	X27	Y27	Z27	X28	Y28	Z28	X29	Y29	Z29	X30	Y30	Z30	X31	Y31	Z31	X32	Y32	Z32	X33	Y33	Z33	X34	Y34	Z34	X35	Y35	Z35	X36	Y36	Z36	X37	Y37	Z37	X38	Y38	Z38	X39	Y39	Z39	X40	Y40	Z40	X41	Y41	Z41	X42	Y42	Z42	X43	Y43	Z43	

293	5.840	-299.96231	106.55656	1145.48120	-471.94824	-61.46272	928.37378	-479.38220	259.17697	920.69019	-476.19894	49.31579	1089.33569	-855.03674	-41.27072	809.84668	-853.46680	168.80052	878.69458	-1051.38196	83.95400	735.98694	-818.81311	-104.84459	654.08746	-742.90399	-48.78049	698.74310	-837.70715	-21.61573	697.72375	-606.75006	-97.31167	547.91766	-563.81329	14.76838	544.58527	-591.12891	-92.25431	510.44327	-548.32581	-40.57498	466.68726	-657.75763	-82.81316	451.82190	-758.36084	-8.52025	206.48149	-665.18591	-69.39857	161.61386	-624.68951	-80.74703	157.14758	-559.26660	-39.42731	162.40353	-603.20978	18.52367	166.75627	-704.14612	74.07272	211.29497	-674.34174	53.69798	157.34250	-791.68439	57.76086	179.05513	-807.87390	279.04074	672.69293	-740.35748	216.53894	698.08203	-722.49591	301.80341	595.25098	-622.55579	290.77368	555.08838	-544.80536	182.22903	541.57056	-586.12262	288.79028	524.34302	-532.50543	244.05235	484.12418	-642.44818	286.38260	467.46872	-762.97900	223.79375	206.07504	-666.56989	297.78775	161.50052	-629.49573	304.23764	161.94569	-560.41492	260.76221	163.36494	-594.59100	220.34625	171.61638	-702.91370	150.44299	210.00586	-675.43097	174.06508	153.40427	-792.25574	169.04570	189.11765	-528.16675	304.48016	146.55087	-517.60040	-72.43079	142.95615	-876.11420	-78.58008	141.50092	-882.62280	296.11798	144.60362	
294	5.860	-298.19400	109.07741	1139.79590	-469.00867	-59.10043	922.84387	-476.50549	260.87650	914.26776	-474.19769	49.95373	1086.78320	-854.87891	-40.99441	808.14471	-852.97772	168.97327	877.53711	-1050.42432	85.43851	733.36786	-818.07043	-103.81956	652.82874	-742.64307	-47.63156	697.07965	-835.45386	-21.85861	691.74988	-605.51068	-96.96585	547.47559	-562.60999	15.11796	543.99200	-589.85590	-91.90578	509.94876	-547.22888	-40.28868	466.08237	-656.71271	-82.54387	451.52078	-758.13617	-8.24544	206.71201	-665.19055	-69.22160	161.80161	-624.75916	-80.49432	157.28917	-559.20697	-39.48985	162.36467	-603.20593	18.55066	166.74503	-704.24780	74.48283	211.58060	-674.30505	53.73608	157.12830	-791.63379	58.11156	179.30595	-806.90894	280.07257	670.89673	-739.64355	217.51762	696.46161	-721.21204	302.83829	593.66010	-617.70062	291.30276	552.43311	-543.48700	182.97281	540.98413	-584.70001	289.66110	523.42194	-531.09418	244.48785	483.43268	-641.22852	287.12238	466.72290	-762.81104	223.85844	206.12505	-666.51111	297.71921	161.47157	-629.45099	304.20444	161.91373	-560.42657	260.76999	163.31534	-594.52258	220.22353	171.53857	-702.84277	150.34674	210.10753	-675.38318	174.11316	153.32814	-792.14105	168.98341	189.12595	-528.19910	304.45355	146.53917	-517.41461	-72.60703	143.09457	-876.16357	-78.53496	141.47321	-882.61230	296.11734	144.59416	
295	5.880	-296.25330	111.71951	1134.60107	-466.03223	-56.81313	917.92621	-473.73798	262.59665	908.45740	-472.24500	50.60899	1084.36914	-854.63770	-40.70368	806.61426	-852.39771	169.16751	876.48932	-1049.28113	86.79161	731.14337	-817.04437	-102.71731	651.70618	-741.80945	-46.19814	695.66846	-833.02563	-22.23143	686.00507	-604.10242	-96.37774	547.00726	-561.25848	15.76823	543.38257	-588.42834	-91.34733	509.44650	-546.02820	-39.76817	465.44977	-655.52814	-82.11797	451.21759	-757.82684	-7.89669	206.96658	-665.18658	-68.97690	162.05315	-624.79938	-80.25996	157.55988	-559.14557	-39.54759	162.33899	-603.16724	18.60621	166.68550	-704.30402	74.84158	211.80785	-674.36121	53.75747	156.81140	-791.57385	58.49313	179.57854	-805.81329	281.08524	669.30579	-738.71399	218.58054	695.04187	-719.85138	303.87430	592.21765	-614.58429	292.01706	550.71448	-542.11060	183.76740	540.36401	-583.27081	290.54785	522.50555	-529.71277	244.99399	482.64450	-640.01251	287.84421	465.95636	-762.63904	223.90976	206.17159	-666.43280	297.64151	161.41138	-629.40271	304.18192	161.87802	-560.46411	260.78412	163.27048	-594.44421	220.11769	171.48651	-702.75922	150.28235	210.19305	-675.33295	174.15051	153.26750	-791.97778	168.91612	189.13683	-528.24023	304.41620	146.52682	-517.28790	-72.72894	143.19212	-876.20325	-78.46931	141.42044	-882.60406	296.10986	144.57846	
296	5.900	-294.10315	114.41225	1129.86841	-463.02469	-54.61842	913.59949	-471.05893	264.32468	903.21851	-470.34210	51.28043	1082.09436	-854.31439	-40.39910	805.25342	-851.72833	169.38266	875.55017	-1047.95386	88.01772	729.31860	-815.76074	-101.54839	650.74249	-740.63416	-44.62820	694.44348	-830.43152	-22.72887	680.48651	-602.52441	-95.52166	546.54694	-559.76569	16.75100	542.79785	-586.87164	-90.55483	508.97189	-544.72266	-38.96979	464.83554	-654.22314	-81.50835	450.93475	-757.49353	-7.51589	207.23810	-665.15125	-68.66544	162.35590	-624.83014	-80.06268	157.96051	-559.10175	-39.59341	162.32869	-603.10461	18.69933	166.57329	-704.31836	75.18565	211.97417	-674.52112	53.74181	156.40166	-791.48895	58.85554	179.84407	-804.59344	282.05713	667.91437	-737.60083	219.66116	693.79108	-718.44226	304.89340	590.92651	-612.67810	292.86853	549.63525	-540.69434	184.60378	539.70221	-581.83618	291.43124	521.60486	-528.38196	245.58936	481.76279	-638.80017	288.54248	465.21643	-762.47241	223.94188	206.21863	-666.34082	297.54498	161.33331	-629.35638	304.16785	161.84499	-560.53180	260.81607	163.24698	-594.35938	220.03221	171.45142	-702.65625	150.24196	210.25233	-675.28876	174.16252	153.23886	-791.77881	168.84813	189.18399	-528.28015	304.37665	146.51414	-517.25269	-72.76304	143.22261	-876.21796	-78.39108	141.34061	-882.59949	296.10083	144.56326	
